<svg xmlns="http://www.w3.org/2000/svg" xmlns:xlink="http://www.w3.org/1999/xlink" viewBox="0,0,256,256" width="16px" height="16px" fill-rule="nonzero"><g fill="#0563bb" fill-rule="nonzero" stroke="none" stroke-width="1" stroke-linecap="butt" stroke-linejoin="miter" stroke-miterlimit="10" stroke-dasharray="" stroke-dashoffset="0" font-family="none" font-weight="none" font-size="none" text-anchor="none" style="mix-blend-mode: normal"><g transform="scale(16,16)"><path d="M3.57813,1c-0.86719,0 -1.57812,0.71875 -1.57812,1.58594v4.76563c-0.39453,-0.19141 -0.68359,-0.36328 -0.76172,-0.36328c-0.19531,0 -0.26953,0.17188 -0.26953,0.29297c0,0.60156 1.375,1.41406 2.50781,1.83594c-0.00391,0 -0.47656,0.93359 -0.47656,1.88281c0,0.94922 0.76953,3 2.625,3c0,0 1.36719,0 1.36719,-1.35937c0,-0.98437 0.00391,-2.03906 0.00781,-2.85937l2,0.52734c0.00391,0.85938 0.00781,1.51953 0.00781,2.33203c0,1.35938 1.36719,1.35938 1.36719,1.35938c1.85547,0 2.625,-1.92578 2.625,-2.875c0,-0.94922 -0.47266,-1.96484 -0.47266,-1.96484c1.12891,-0.42187 2.47266,-1.30469 2.47266,-1.91016c0,-0.11719 -0.07422,-0.28906 -0.26953,-0.28906c-0.07422,0 -0.35937,0.16406 -0.73047,0.35156v-4.72656c0,-0.86719 -0.70703,-1.58594 -1.57812,-1.58594zM3.57813,2h8.84375c0.32422,0 0.57813,0.25391 0.57813,0.58594v5.14063c-0.48828,0.15234 -1.05469,0.27344 -1.69141,0.27344h-1.62891c-0.64844,0 -0.67969,0.75 -0.67969,0.75c0,0 0,0.54688 0,0.67969l-2.21094,-1.21484c-0.10156,-0.11719 -0.23828,-0.21484 -0.46875,-0.21484h-1.69531c-0.61328,0 -1.15625,-0.10937 -1.625,-0.25v-5.16406c0,-0.33203 0.25391,-0.58594 0.57813,-0.58594zM5.625,4c-0.82812,0 -1.5,0.67188 -1.5,1.5c0,0.82813 0.67188,1.5 1.5,1.5c0.82813,0 1.5,-0.67187 1.5,-1.5c0,-0.82812 -0.67187,-1.5 -1.5,-1.5zM10.5,4c-0.82812,0 -1.5,0.67188 -1.5,1.5c0,0.82813 0.67188,1.5 1.5,1.5c0.82813,0 1.5,-0.67187 1.5,-1.5c0,-0.82812 -0.67187,-1.5 -1.5,-1.5z"></path></g></g></svg>